<mxfile host="app.diagrams.net" modified="2023-05-23T14:08:43.314Z" agent="Mozilla/5.0 (X11; Ubuntu; Linux x86_64; rv:109.0) Gecko/20100101 Firefox/113.0" etag="bsOELl2p4BTGrSse18Xr" version="21.3.2" type="device">
  <diagram name="Page-1" id="bprYtedmRy179frKg-53">
    <mxGraphModel dx="2284" dy="840" grid="1" gridSize="10" guides="1" tooltips="1" connect="1" arrows="1" fold="1" page="1" pageScale="1" pageWidth="850" pageHeight="1100" math="0" shadow="0">
      <root>
        <mxCell id="0" />
        <mxCell id="1" parent="0" />
        <mxCell id="g9BpfWFpam-Bk-mDH33--1" value="PDP" style="rounded=1;whiteSpace=wrap;html=1;" vertex="1" parent="1">
          <mxGeometry x="250" y="140" width="120" height="60" as="geometry" />
        </mxCell>
        <mxCell id="g9BpfWFpam-Bk-mDH33--2" value="PRP/PAP" style="rounded=1;whiteSpace=wrap;html=1;" vertex="1" parent="1">
          <mxGeometry x="460" y="80" width="120" height="60" as="geometry" />
        </mxCell>
        <mxCell id="g9BpfWFpam-Bk-mDH33--3" value="PIP" style="rounded=1;whiteSpace=wrap;html=1;" vertex="1" parent="1">
          <mxGeometry x="460" y="200" width="120" height="60" as="geometry" />
        </mxCell>
        <mxCell id="g9BpfWFpam-Bk-mDH33--4" value="" style="endArrow=classic;html=1;rounded=0;entryX=0;entryY=0.5;entryDx=0;entryDy=0;exitX=1;exitY=0.5;exitDx=0;exitDy=0;" edge="1" parent="1" source="g9BpfWFpam-Bk-mDH33--1" target="g9BpfWFpam-Bk-mDH33--2">
          <mxGeometry width="50" height="50" relative="1" as="geometry">
            <mxPoint x="190" y="430" as="sourcePoint" />
            <mxPoint x="240" y="380" as="targetPoint" />
          </mxGeometry>
        </mxCell>
        <mxCell id="g9BpfWFpam-Bk-mDH33--5" value="" style="endArrow=classic;html=1;rounded=0;entryX=0.008;entryY=0.617;entryDx=0;entryDy=0;exitX=1;exitY=0.5;exitDx=0;exitDy=0;entryPerimeter=0;" edge="1" parent="1" source="g9BpfWFpam-Bk-mDH33--1" target="g9BpfWFpam-Bk-mDH33--3">
          <mxGeometry width="50" height="50" relative="1" as="geometry">
            <mxPoint x="380" y="170" as="sourcePoint" />
            <mxPoint x="470" y="120" as="targetPoint" />
          </mxGeometry>
        </mxCell>
        <mxCell id="g9BpfWFpam-Bk-mDH33--6" value="PEP" style="rounded=1;whiteSpace=wrap;html=1;" vertex="1" parent="1">
          <mxGeometry x="40" y="140" width="120" height="60" as="geometry" />
        </mxCell>
        <mxCell id="g9BpfWFpam-Bk-mDH33--7" value="" style="endArrow=classic;html=1;rounded=0;exitX=1;exitY=0.5;exitDx=0;exitDy=0;" edge="1" parent="1" source="g9BpfWFpam-Bk-mDH33--6" target="g9BpfWFpam-Bk-mDH33--1">
          <mxGeometry width="50" height="50" relative="1" as="geometry">
            <mxPoint x="150" y="380" as="sourcePoint" />
            <mxPoint x="200" y="330" as="targetPoint" />
          </mxGeometry>
        </mxCell>
        <mxCell id="g9BpfWFpam-Bk-mDH33--8" value="Verifier" style="rounded=1;whiteSpace=wrap;html=1;" vertex="1" parent="1">
          <mxGeometry x="245" y="330" width="120" height="60" as="geometry" />
        </mxCell>
        <mxCell id="g9BpfWFpam-Bk-mDH33--9" value="TrustedIssuersList" style="rounded=1;whiteSpace=wrap;html=1;" vertex="1" parent="1">
          <mxGeometry x="460" y="330" width="120" height="60" as="geometry" />
        </mxCell>
        <mxCell id="g9BpfWFpam-Bk-mDH33--10" value="TrustedParticipantsList" style="rounded=1;whiteSpace=wrap;html=1;" vertex="1" parent="1">
          <mxGeometry x="460" y="430" width="120" height="60" as="geometry" />
        </mxCell>
        <mxCell id="g9BpfWFpam-Bk-mDH33--11" value="" style="endArrow=classic;html=1;rounded=0;exitX=1;exitY=0.5;exitDx=0;exitDy=0;entryX=0;entryY=0.5;entryDx=0;entryDy=0;" edge="1" parent="1" source="g9BpfWFpam-Bk-mDH33--8" target="g9BpfWFpam-Bk-mDH33--9">
          <mxGeometry width="50" height="50" relative="1" as="geometry">
            <mxPoint x="395" y="320" as="sourcePoint" />
            <mxPoint x="445" y="270" as="targetPoint" />
          </mxGeometry>
        </mxCell>
        <mxCell id="g9BpfWFpam-Bk-mDH33--12" value="" style="endArrow=classic;html=1;rounded=0;exitX=1;exitY=0.5;exitDx=0;exitDy=0;entryX=0;entryY=0.5;entryDx=0;entryDy=0;" edge="1" parent="1" source="g9BpfWFpam-Bk-mDH33--8" target="g9BpfWFpam-Bk-mDH33--10">
          <mxGeometry width="50" height="50" relative="1" as="geometry">
            <mxPoint x="395" y="320" as="sourcePoint" />
            <mxPoint x="445" y="270" as="targetPoint" />
          </mxGeometry>
        </mxCell>
        <mxCell id="g9BpfWFpam-Bk-mDH33--13" value="Actor" style="shape=umlActor;verticalLabelPosition=bottom;verticalAlign=top;html=1;outlineConnect=0;" vertex="1" parent="1">
          <mxGeometry x="-100" y="330" width="30" height="60" as="geometry" />
        </mxCell>
        <mxCell id="g9BpfWFpam-Bk-mDH33--14" value="" style="endArrow=classic;html=1;rounded=0;entryX=0.017;entryY=0.65;entryDx=0;entryDy=0;entryPerimeter=0;" edge="1" parent="1" target="g9BpfWFpam-Bk-mDH33--8">
          <mxGeometry width="50" height="50" relative="1" as="geometry">
            <mxPoint x="-60" y="370" as="sourcePoint" />
            <mxPoint x="120" y="310" as="targetPoint" />
          </mxGeometry>
        </mxCell>
        <mxCell id="g9BpfWFpam-Bk-mDH33--15" value="VerifiableCredential" style="edgeLabel;html=1;align=center;verticalAlign=middle;resizable=0;points=[];" vertex="1" connectable="0" parent="g9BpfWFpam-Bk-mDH33--14">
          <mxGeometry x="-0.1075" y="4" relative="1" as="geometry">
            <mxPoint x="23" y="4" as="offset" />
          </mxGeometry>
        </mxCell>
        <mxCell id="g9BpfWFpam-Bk-mDH33--16" value="" style="endArrow=classic;html=1;rounded=0;exitX=0;exitY=0.25;exitDx=0;exitDy=0;" edge="1" parent="1" source="g9BpfWFpam-Bk-mDH33--8">
          <mxGeometry width="50" height="50" relative="1" as="geometry">
            <mxPoint x="50" y="370" as="sourcePoint" />
            <mxPoint x="-60" y="345" as="targetPoint" />
          </mxGeometry>
        </mxCell>
        <mxCell id="g9BpfWFpam-Bk-mDH33--17" value="JWT" style="edgeLabel;html=1;align=center;verticalAlign=middle;resizable=0;points=[];" vertex="1" connectable="0" parent="g9BpfWFpam-Bk-mDH33--16">
          <mxGeometry x="-0.082" y="-4" relative="1" as="geometry">
            <mxPoint as="offset" />
          </mxGeometry>
        </mxCell>
        <mxCell id="g9BpfWFpam-Bk-mDH33--18" value="JWT" style="endArrow=classic;html=1;rounded=0;entryX=0.5;entryY=1;entryDx=0;entryDy=0;" edge="1" parent="1" target="g9BpfWFpam-Bk-mDH33--6">
          <mxGeometry width="50" height="50" relative="1" as="geometry">
            <mxPoint x="-50" y="330" as="sourcePoint" />
            <mxPoint x="30" y="250" as="targetPoint" />
          </mxGeometry>
        </mxCell>
      </root>
    </mxGraphModel>
  </diagram>
</mxfile>
